<?xml version="1.0" encoding="UTF-8" standalone="no"?>
<svg
   xmlns:dc="http://purl.org/dc/elements/1.1/"
   xmlns:cc="http://creativecommons.org/ns#"
   xmlns:rdf="http://www.w3.org/1999/02/22-rdf-syntax-ns#"
   xmlns:svg="http://www.w3.org/2000/svg"
   xmlns="http://www.w3.org/2000/svg"
   id="svg8"
   version="1.1"
   viewBox="0 0 6.3499999 6.3500002"
   height="24"
   width="24">
  <defs
     id="defs2" />
  <metadata
     id="metadata5">
    <rdf:RDF>
      <cc:Work
         rdf:about="">
        <dc:format>image/svg+xml</dc:format>
        <dc:type
           rdf:resource="http://purl.org/dc/dcmitype/StillImage" />
        <dc:title></dc:title>
      </cc:Work>
    </rdf:RDF>
  </metadata>
  <g
     transform="translate(0,-290.64998)"
     id="layer1">
    <g
       id="text1009"
       style="font-style:normal;font-variant:normal;font-weight:normal;font-stretch:normal;font-size:5.90989399px;line-height:1.25;font-family:Consolas;-inkscape-font-specification:'Consolas, Normal';font-variant-ligatures:normal;font-variant-caps:normal;font-variant-numeric:normal;font-feature-settings:normal;text-align:start;letter-spacing:-1.57794178px;word-spacing:0px;writing-mode:lr-tb;text-anchor:start;fill:#000000;fill-opacity:1;stroke:none;stroke-width:0.29009882"
       transform="matrix(0.9120907,0,0,0.91200022,-41.208614,173.22643)"
       aria-label="itt">
      <path
         id="path1018"
         style="font-style:normal;font-variant:normal;font-weight:normal;font-stretch:normal;font-size:5.90989399px;font-family:Consolas;-inkscape-font-specification:'Consolas, Normal';font-variant-ligatures:normal;font-variant-caps:normal;font-variant-numeric:normal;font-feature-settings:normal;text-align:start;letter-spacing:-1.57794178px;writing-mode:lr-tb;text-anchor:start;stroke-width:0.29009882"
         d="m 46.511009,131.78939 h -0.389352 v -0.41554 h 0.897234 v 2.4788 h 0.862821 v 0.41843 h -1.771765 v -0.41843 h 0.401062 z m 0.176027,-1.63042 c 0.05579,0 0.107729,0.0106 0.155828,0.0317 0.04809,0.0193 0.08946,0.0472 0.124084,0.0837 0.03655,0.0365 0.06445,0.0789 0.08369,0.12697 0.02116,0.0461 0.03174,0.0971 0.03174,0.15294 0,0.0539 -0.01058,0.10485 -0.03174,0.15294 -0.01924,0.0481 -0.04714,0.0904 -0.08369,0.12697 -0.03463,0.0365 -0.07599,0.0654 -0.124084,0.0866 -0.04809,0.0193 -0.100036,0.0289 -0.155828,0.0289 -0.05579,0 -0.107736,-0.01 -0.155827,-0.0289 -0.04809,-0.0211 -0.09042,-0.05 -0.12697,-0.0866 -0.03463,-0.0365 -0.06252,-0.0789 -0.08369,-0.12697 -0.01924,-0.0481 -0.02886,-0.0991 -0.02886,-0.15294 0,-0.0558 0.0096,-0.10678 0.02886,-0.15294 0.02116,-0.0481 0.04906,-0.0904 0.08369,-0.12697 0.03655,-0.0365 0.07888,-0.0644 0.12697,-0.0837 0.04809,-0.0211 0.100036,-0.0317 0.155827,-0.0317 z" />
      <path
         id="path1020"
         style="font-style:normal;font-variant:normal;font-weight:normal;font-stretch:normal;font-size:5.90989399px;font-family:Consolas;-inkscape-font-specification:'Consolas, Normal';font-variant-ligatures:normal;font-variant-caps:normal;font-variant-numeric:normal;font-feature-settings:normal;text-align:start;letter-spacing:-1.57794178px;writing-mode:lr-tb;text-anchor:start;stroke-width:0.29009882"
         d="m 49.535744,134.23068 q -0.170256,0.0433 -0.352055,0.0606 -0.181798,0.0202 -0.369368,0.0202 -0.545395,0 -0.813765,-0.24529 -0.268369,-0.24816 -0.268369,-0.75893 v -1.5121 h -0.810879 v -0.42131 h 0.810879 v -0.79645 l 0.50211,-0.12986 v 0.92631 h 1.301447 v 0.42131 h -1.301447 v 1.4717 q 0,0.31165 0.164485,0.46748 0.16737,0.15294 0.490567,0.15294 0.138513,0 0.302997,-0.0202 0.164485,-0.0231 0.343398,-0.0693 z" />
      <path
         id="path1022"
         style="font-style:normal;font-variant:normal;font-weight:normal;font-stretch:normal;font-size:5.90989399px;font-family:Consolas;-inkscape-font-specification:'Consolas, Normal';font-variant-ligatures:normal;font-variant-caps:normal;font-variant-numeric:normal;font-feature-settings:normal;text-align:start;letter-spacing:-1.57794178px;writing-mode:lr-tb;text-anchor:start;stroke-width:0.29009882"
         d="m 51.212861,134.23068 q -0.170256,0.0433 -0.352055,0.0606 -0.181798,0.0202 -0.369368,0.0202 -0.545395,0 -0.813765,-0.24529 -0.268369,-0.24816 -0.268369,-0.75893 v -1.5121 h -0.810879 v -0.42131 h 0.810879 v -0.79645 l 0.50211,-0.12986 v 0.92631 h 1.301447 v 0.42131 h -1.301447 v 1.4717 q 0,0.31165 0.164485,0.46748 0.16737,0.15294 0.490567,0.15294 0.138513,0 0.302997,-0.0202 0.164485,-0.0231 0.343398,-0.0693 z" />
    </g>
  </g>
</svg>
